<svg width="464" height="176" viewBox="0 0 464 176" fill="none" xmlns="http://www.w3.org/2000/svg">
<path d="M69.2578 175.355C55.3516 175.355 43.0078 174.027 32.2266 171.371C21.4453 168.714 10.7031 163.714 0 156.371V112.074H31.7578L35.2734 134.808C37.7734 137.621 42.1875 140.004 48.5156 141.957C54.8438 143.832 61.7578 144.769 69.2578 144.769C85.1172 144.769 93.0469 139.222 93.0469 128.129C93.0469 123.05 91.0938 118.754 87.1875 115.238C83.2812 111.644 76.4844 107.972 66.7969 104.222C52.1875 99.5348 40.1953 94.7692 30.8203 89.9254C21.4453 85.0817 14.4531 79.3395 9.84375 72.6989C5.3125 66.0582 3.04688 57.8161 3.04688 47.9723C3.04688 38.5192 5.74219 30.277 11.1328 23.2457C16.5234 16.1364 23.9453 10.5504 33.3984 6.48793C42.8516 2.42543 53.6719 0.276989 65.8594 0.0426136C79.7656 -0.269886 92.0703 1.13636 102.773 4.26136C113.477 7.30824 122.93 11.9567 131.133 18.2067V59.3395H100.664L95.8594 36.4879C93.2031 35.1598 89.4141 33.9489 84.4922 32.8551C79.5703 31.7614 74.3359 31.2145 68.7891 31.2145C61.6797 31.2145 55.7812 32.6207 51.0938 35.4332C46.4062 38.2457 44.0625 42.4645 44.0625 48.0895C44.0625 51.1364 44.9609 53.8707 46.7578 56.2926C48.5547 58.6364 51.7188 61.0192 56.25 63.4411C60.7812 65.7848 67.1094 68.5192 75.2344 71.6442C94.6094 77.3473 109.297 84.4957 119.297 93.0895C129.375 101.605 134.414 113.207 134.414 127.894C134.414 137.972 131.68 146.566 126.211 153.675C120.742 160.707 113.125 166.097 103.359 169.847C93.5938 173.519 82.2266 175.355 69.2578 175.355Z" fill="black"/>
<path d="M181.289 172.894V148.871L199.102 145.121V34.1442H172.734L171.68 52.5426H140.625V2.26918H299.18V52.5426H267.773L266.836 34.1442H240.234V145.121L258.047 148.871V172.894H181.289Z" fill="black"/>
<path d="M305.391 172.894V148.871L323.086 145.121V30.1598L305.391 26.4098V2.15199H389.297C402.812 2.15199 414.531 4.30043 424.453 8.5973C434.375 12.8942 442.031 19.027 447.422 26.9957C452.812 34.8864 455.508 44.2614 455.508 55.1207C455.508 64.4176 453.125 73.1285 448.359 81.2535C443.672 89.3785 437.266 96.0582 429.141 101.293L446.953 144.886L463.125 148.988V172.894H413.438L392.227 111.371L364.219 111.019V145.121L381.914 148.871V172.894H305.391ZM364.219 79.4957H389.766C397.734 79.4957 403.867 77.6598 408.164 73.9879C412.461 70.2379 414.609 64.8473 414.609 57.8161C414.609 50.5504 412.422 44.7301 408.047 40.3551C403.672 35.902 397.422 33.6754 389.297 33.6754H364.219V79.4957Z" fill="black"/>
</svg>
