<svg width="506" height="411" fill="none" xmlns="http://www.w3.org/2000/svg">
    <path fill-rule="evenodd" clip-rule="evenodd"
        d="M459 205.5c0 26.282-4.934 51.412-13.926 74.514l-17.059-49.481-30.564-.384v37.213l19.31 4.092v26.216h-83.506v-26.216l19.31-4.092v-125.45l-19.31-4.092v-26.472h91.563c4.035 0 7.923.176 11.664.527C450.877 139.953 459 171.778 459 205.5zM71.998 109.044C106.547 44.165 174.865 0 253.5 0c79.772 0 148.928 45.454 182.982 111.875 9.935.932 18.834 3.101 26.7 6.507 10.827 4.689 19.182 11.381 25.064 20.077 5.883 8.611 8.824 18.841 8.824 30.691 0 10.145-2.6 19.651-7.801 28.517-5.115 8.867-12.106 16.156-20.972 21.868l19.438 47.571 17.647 4.476v26.088h-54.221l-6.087-17.656C415.236 356.673 340.712 411 253.5 411c-79.296 0-148.102-44.913-182.368-110.687 1.465.028 2.947.042 4.445.042 14.152 0 26.557-2.003 37.213-6.01 10.657-4.092 18.969-9.975 24.937-17.648 5.968-7.758 8.951-17.136 8.951-28.133 0-16.028-5.498-28.688-16.496-37.981-10.913-9.378-26.94-17.178-48.083-23.402-8.866-3.41-15.772-6.394-20.717-8.951-4.944-2.643-8.397-5.243-10.358-7.801l-.035-.048a204.172 204.172 0 015.363-23.062c5.016-2.838 11.254-4.256 18.714-4.256 6.053 0 11.765.596 17.135 1.79 5.372 1.193 9.506 2.515 12.405 3.964l5.243 24.937h33.249v-44.886c-8.952-6.82-19.267-11.893-30.947-15.218-11.647-3.4-25.031-4.936-40.153-4.606zM48.163 213.799a205.07 205.07 0 008.555 51.112 68.443 68.443 0 01-3.777-1.002c-6.905-2.131-11.722-4.731-14.45-7.8L34.656 231.3H0v48.339c11.68 8.013 23.402 13.47 35.167 16.368 10.603 2.613 22.591 4.048 35.965 4.306a204.189 204.189 0 01-14.413-35.402c5.855 1.378 12.141 2.067 18.858 2.067 17.307 0 25.96-6.053 25.96-18.159 0-5.541-2.132-10.23-6.394-14.066-4.263-3.922-11.68-7.929-22.251-12.021-9.192-2.949-17.434-5.927-24.727-8.933zm0 0c-5.356-2.207-10.2-4.43-14.532-6.668-10.23-5.286-17.86-11.552-22.89-18.799-4.945-7.246-7.417-16.241-7.417-26.983 0-10.315 2.941-19.309 8.824-26.982 5.882-7.758 13.981-13.854 24.297-18.287s22.123-6.778 35.423-7.033l.129-.003a204.157 204.157 0 00-15.646 38.275c-.2.113-.4.229-.596.347-5.115 3.069-7.673 7.673-7.673 13.811 0 3.305.969 6.273 2.906 8.904A206.83 206.83 0 0048 205.5c0 2.78.055 5.546.164 8.299zm149.666 57.655v26.216h83.762v-26.216l-19.438-4.092V146.26h29.029l1.023 20.077h34.272v-54.861H153.456v54.861h33.888l1.151-20.077h28.773v121.102l-19.438 4.092zm199.621-75.705h27.878c8.696 0 15.388-2.003 20.077-6.01 4.689-4.092 7.034-9.975 7.034-17.648 0-7.928-2.387-14.28-7.162-19.054-4.774-4.859-11.594-7.289-20.46-7.289h-27.367v50.001zm24.86-7.088c10.246 0 18.551-8.306 18.551-18.551 0-10.246-8.305-18.551-18.551-18.551-10.245 0-18.551 8.305-18.551 18.551 0 10.245 8.306 18.551 18.551 18.551z"
        fill="#var(rgb(--primary_text))" />
</svg>